<?xml version="1.0" ?><svg height="512" id="Layer_1" version="1.1" viewBox="0 0 512 512" width="512" xml:space="preserve" xmlns="http://www.w3.org/2000/svg" xmlns:cc="http://creativecommons.org/ns#" xmlns:dc="http://purl.org/dc/elements/1.1/" xmlns:inkscape="http://www.inkscape.org/namespaces/inkscape" xmlns:rdf="http://www.w3.org/1999/02/22-rdf-syntax-ns#" xmlns:sodipodi="http://sodipodi.sourceforge.net/DTD/sodipodi-0.dtd" xmlns:svg="http://www.w3.org/2000/svg"><defs id="defs12"/><g id="g6197"><rect height="512" id="rect2987" rx="64" ry="64" style="fill:#272727;fill-opacity:1;fill-rule:nonzero;stroke:none" width="512" x="0" y="5.6843419e-014"/><path d="m 104.34409,356.86 h 13.5399 c 0.6481,4.92 1.428,18.804 -6.916,33.14 0,0 38.116,-1.83601 45.86,-33.14 h 250.828 c 15.656,0 28.344,-12.72001 28.344,-28.41601 V 150.41201 c 0,-15.69199 -12.688,-28.41201 -28.344,-28.41201 h -303.3119 c -15.648095,0 -28.344085,12.72002 -28.344085,28.41201 V 328.448 c 0,15.69199 12.69599,28.412 28.344085,28.412 z M 377.648,258.84001 c 7.44399,0 13.47599,6.04398 13.47599,13.49199 0,7.452 -6.032,13.49599 -13.47599,13.49599 -7.428,0 -13.444,-6.04399 -13.444,-13.49599 0,-7.44801 6.016,-13.49199 13.444,-13.49199 z M 296.976,299.9 c 0.072,0.908 0.132,1.812 0.132,2.73599 0,18.83601 -15.228,34.09201 -34.008,34.09201 -15.072,0 -27.828,-9.82001 -32.304,-23.42001 L 296.976,299.9 z M 135.77199,258.84001 c 7.428,0 13.46,6.04398 13.46,13.49199 0,7.452 -6.032,13.49599 -13.46,13.49599 -7.428,0 -13.468,-6.04399 -13.468,-13.49599 0,-7.44801 6.04,-13.49199 13.468,-13.49199 z" id="Bnter" style="fill:#ffffff;fill-opacity:1"/></g></svg>