<?xml version="1.0" ?><svg height="512" id="Layer_1" version="1.1" viewBox="0 0 512 512" width="512" xml:space="preserve" xmlns="http://www.w3.org/2000/svg" xmlns:cc="http://creativecommons.org/ns#" xmlns:dc="http://purl.org/dc/elements/1.1/" xmlns:inkscape="http://www.inkscape.org/namespaces/inkscape" xmlns:rdf="http://www.w3.org/1999/02/22-rdf-syntax-ns#" xmlns:sodipodi="http://sodipodi.sourceforge.net/DTD/sodipodi-0.dtd" xmlns:svg="http://www.w3.org/2000/svg"><defs id="defs12"/><g id="g4458"><rect height="512" id="rect2987" rx="64" ry="64" style="fill:#54665f;fill-opacity:1;fill-rule:nonzero;stroke:none" width="512" x="0" y="5.6843419e-014"/><path d="m 187.95035,179.9235 c -1.2195,0.19329 -2.2989,0.4832 -3.5198,0.69961 l -20.20998,-41.28961 -59.91385,6.84779 24.4158,50.2499 C 2.3750442,248.91195 58.356614,372.6665 58.356614,372.6665 L 251.14996,316.84418 198.17785,208.67039 c 95.07161,-27.48377 174.46311,28.71014 174.46311,28.71014 l -65.4428,17.78033 -18.8433,-35.20541 c -17.7232,-3.31025 -37.9045,-4.31611 -59.4157,-0.7105 l 44.5604,91.08626 192.50069,-55.77741 c 0,0.001 -69.80649,-110.29032 -278.0499,-74.6303 z m -77.42738,128.63961 c 0,0 -18.579316,-41.26104 35.4817,-76.5944 l 28.74558,59.17341 -64.22728,17.42099 z" id="deviantART_4_" style="fill:#ffffff"/></g></svg>