<?xml version="1.0" ?><svg height="512" id="Layer_1" version="1.1" viewBox="0 0 512 512" width="512" xml:space="preserve" xmlns="http://www.w3.org/2000/svg" xmlns:cc="http://creativecommons.org/ns#" xmlns:dc="http://purl.org/dc/elements/1.1/" xmlns:inkscape="http://www.inkscape.org/namespaces/inkscape" xmlns:rdf="http://www.w3.org/1999/02/22-rdf-syntax-ns#" xmlns:sodipodi="http://sodipodi.sourceforge.net/DTD/sodipodi-0.dtd" xmlns:svg="http://www.w3.org/2000/svg"><defs id="defs12"/><g id="g5843"><rect height="512" id="rect2987" rx="64" ry="64" style="fill:#7bb13b;fill-opacity:1;fill-rule:nonzero;stroke:none" width="512" x="0" y="5.6843419e-014"/><path d="m 122.09537,133.46995 c 0,0 0,0 0.027,0 h 37.5384 c 2.1494,0 3.8823,-1.74731 3.8861,-3.88483 0,-0.0144 -0.4532,-32.187448 -0.4532,-41.132928 v -0.11033 c 0,-7.34794 1.5398,-13.75258 4.2291,-19.12329 l 1.2796,-2.41208 c -0.1406,0.0276 -0.2851,0.0972 -0.427,0.24041 L 95.233466,139.37407 c -0.1394,0.11953 -0.23,0.27195 -0.2734,0.42961 1.5082,-0.74754 3.5761,-1.76572 3.8679,-1.89709 6.349404,-2.8614 14.052004,-4.43661 23.268104,-4.43661 z m 292.107,-7.87213 c -2.9796,-15.96629 -12.4704,-23.82923 -21.048,-26.925788 -9.2607,-3.34487 -28.0333,-6.80928 -51.6141,-9.58791 -18.9775,-2.23605 -41.2815,-2.05869 -54.7476,-1.64222 -1.6185,-11.07248 -9.3869,-21.19248 -18.0775,-24.695 -23.1605,-9.31728 -58.9399,-7.0681 -68.1244,-4.4918 -7.2967,2.03767 -15.3778,6.21941 -19.8735,12.65953 -3.0165,4.30787 -4.9687,9.82177 -4.9806,17.5231 0,4.36042 0.1151,14.627548 0.2274,23.754338 0.1137,9.15306 0.2325,17.33656 0.2325,17.39437 0,8.14802 -6.6108,14.77994 -14.793,14.79045 h -37.5451 c -8.0087,0 -14.1335,1.34531 -18.8041,3.46968 -4.6809,2.12569 -7.999504,4.99234 -10.516704,8.38056 -5.0146,6.73308 -5.887,15.04008 -5.8659,23.51655 0,0 0.073,6.93015 1.742,20.33589 1.3886,10.37749 12.643704,82.85575 23.328704,104.89955 4.1436,8.575 6.9052,12.14978 15.044,15.92951 18.1366,7.76702 59.5678,16.4064 78.9841,18.87761 19.3847,2.48171 31.5515,7.69214 38.801,-7.50559 0.02,-0.0381 1.4477,-3.78498 3.4118,-9.27393 6.2982,-19.07336 7.1705,-35.9974 7.1705,-48.2457 0,-1.24414 1.8276,-1.30195 1.8276,0 0,8.64857 -1.6515,39.24241 21.4578,47.44824 9.1267,3.23714 28.0555,6.12481 47.284,8.37662 17.3878,1.99825 30.0119,8.84169 30.0119,53.45481 0,27.14256 -5.7005,30.86186 -35.5061,30.86186 -24.1603,0 -33.3672,0.62929 -33.3672,-18.56494 0,-15.51435 15.3449,-13.88921 26.7143,-13.88921 5.0817,0 1.3926,-3.7771 1.3926,-13.34531 0,-9.52092 5.954,-15.02694 0.3245,-15.16489 -39.3213,-1.07992 -62.4543,-0.0446 -62.4543,49.12856 0,44.63807 17.0792,52.93324 72.8856,52.93324 43.7539,0 59.1776,-1.43727 77.242,-57.49072 3.5801,-11.06461 12.2247,-44.83515 17.4561,-101.54023 3.3054,-35.85288 -3.1215,-144.06182 -8.2203,-171.37123 z m -76.2685,119.60198 c -5.4062,-0.18655 -10.6047,0.15372 -15.4526,0.9341 1.3611,-11.02124 5.9081,-24.54392 22.0255,-23.97899 17.837,0.61878 20.3384,17.47581 20.4002,28.89644 -7.5214,-3.35668 -16.8294,-5.4942 -26.9731,-5.85155 z" id="path17-1" style="fill:#ffffff"/></g></svg>