<?xml version="1.0" ?><svg enable-background="new 0 0 515.91 728.5" height="512" id="Layer_1" version="1.1" viewBox="0 0 512.00003 512" width="512" xml:space="preserve" xmlns="http://www.w3.org/2000/svg" xmlns:cc="http://creativecommons.org/ns#" xmlns:dc="http://purl.org/dc/elements/1.1/" xmlns:inkscape="http://www.inkscape.org/namespaces/inkscape" xmlns:rdf="http://www.w3.org/1999/02/22-rdf-syntax-ns#" xmlns:sodipodi="http://sodipodi.sourceforge.net/DTD/sodipodi-0.dtd" xmlns:svg="http://www.w3.org/2000/svg"><defs id="defs7"/><g id="g3795"><rect height="512" id="rect2984" rx="64" ry="64" style="fill:#ea7015;fill-opacity:1;fill-rule:nonzero;stroke:none" width="512" x="0" y="0"/><path d="m 254.28134,64.185678 c -53.7623,0 -102.3767,22.0353 -137.34377,57.531202 0.55902,0.7991 1.12181,1.5528 1.71875,2.3126 0.0213,0.021 0.042,0.072 0.0625,0.094 1.17927,1.2006 2.46944,2.3531 3.9375,3.4688 0.36428,-0.37 0.72621,-0.7574 1.09375,-1.125 16.95561,-16.9556 36.67558,-30.266402 58.65627,-39.562502 22.75177,-9.6236 46.9515,-14.5 71.87501,-14.5 23.52716,0 46.37459,4.3559 68.00001,12.9375 4.33854,0.7495 9.17227,1.734 14.21875,3.0312 6.17981,1.0523 12.31244,2.4893 18.37501,4.1563 -29.29182,-17.9581 -63.71757,-28.3438 -100.59377,-28.3438 z m 63.90626,27.1875 c -5.56646,-0.1097 -10.46965,0.3604 -14.71875,1.4063 -0.47212,0.1162 -0.91915,0.2445 -1.37501,0.375 l -0.78124,0 c 6.76245,1.5624 12.6125,2.8437 17.5625,3.9062 4.95008,1.0375 10.01878,2.3437 15.21875,3.906202 5.21254,1.575 10.04383,3.3813 14.46876,5.4688 4.42501,2.0751 7.41873,4.4438 9.03126,6.9687 -13.55006,0 -26.83126,1.8188 -39.84376,5.4688 -0.1312,0 -0.18731,0.016 -0.18751,0.031 -5.8e-4,0.047 0.57813,0.1468 1.75,0.3436 1.55001,0.2625 3.89371,0.8187 7.03126,1.5938 3.11249,0.775 6.65,1.8249 10.56249,3.125 3.90003,1.2999 8.07499,3.1187 12.50001,5.4688 4.42501,2.3499 8.95631,4.9501 13.65625,7.8124 4.68754,2.8625 9.23124,6.5437 13.65625,10.9688 4.42501,4.425 8.59997,9.1125 12.49997,14.0625 3.925,4.95 7.425,10.9625 10.5625,18 3.1126,7.0376 5.4688,14.7126 7.0313,23.0625 -5.7375,-11.4749 -11.9876,-18.2687 -18.75,-20.3437 3.6375,10.4251 5.2,23.5999 4.6875,39.5 -0.525,15.9124 -2.3563,28.8062 -5.4688,38.7188 l -1.56246,-1.5626 c -2.59999,-7.3125 -7.03122,-12.2625 -13.28127,-14.875 2.61256,16.7001 2.20002,33.9 -1.18749,51.625 -3.38751,17.7126 -9.48117,29.7375 -18.34375,36 -0.51243,0 -7e-5,-3.6561 1.56249,-10.9688 3.6375,-14.0749 4.92506,-21.0936 3.87501,-21.0936 -0.51252,0.5124 -1.53126,2.0625 -3.09375,4.6874 -7.825,11.4751 -16.03752,20.9812 -24.625,28.5312 -8.61253,7.5625 -16.66877,12.9063 -24.21876,16.0314 -7.54999,3.1374 -15.88745,4.6874 -25.00001,4.6874 -9.11247,0 -16.68122,-0.6375 -22.65625,-1.9374 -6.00005,-1.2876 -13.15627,-4.1689 -21.46875,-8.5938 -8.33751,-4.4126 -14.37499,-7.6937 -18.00001,-9.7812 -3.64995,-2.0751 -8.59371,-5.4564 -14.84374,-10.1564 4.88283,1.297 10.52758,1.7931 16.93749,1.4689 3.84595,-0.1947 7.98282,-0.6907 12.37501,-1.4689 1.46406,-0.2593 2.87111,-0.5432 4.25,-0.8437 9.65216,-2.1027 17.21873,-5.1999 22.6875,-9.3125 1.56249,-0.5125 3.49374,-1.7062 5.84375,-3.5312 2.35001,-1.825 4.05625,-2.9875 5.09375,-3.5 0.2625,-0.128 0.53281,-0.2894 0.84374,-0.4688 0.93281,-0.5379 2.1,-1.2969 3.46877,-2.2812 1.81254,-1.3 3.11873,-2.0812 3.90625,-2.3438 0.78752,-0.2624 2.04999,-0.7874 3.875,-1.5625 1.82493,-0.7749 3.00627,-1.0438 3.53125,-0.7812 0.51252,0.2749 1.57506,0.1058 3.125,-0.4063 3.65004,1.05 6.39373,0.1437 8.21874,-2.7187 1.82504,-2.8626 1.16879,-5.875 -1.96873,-9 -9.88752,-11.4625 -22.65631,-15.1439 -38.28127,-10.9687 -2.08748,0.5124 -5.61249,1.8311 -10.56249,3.9062 -4.96247,2.0874 -9.11251,3.6686 -12.50002,4.7187 -3.39997,1.0375 -8.08746,1.2751 -14.06249,0.7501 -5.98749,-0.5126 -11.83745,-2.6002 -17.56251,-6.25 -14.07494,-8.3251 -21.09375,-17.4751 -21.09375,-27.3751 0.49996,-2.0875 1.03752,-4.1624 1.5625,-6.25 1.03751,-3.6374 5.18752,-7.0313 12.5,-10.1562 5.73752,1.0375 11.71871,3.125 17.96875,6.25 l 0,-7.0313 c 0.064,-0.1312 0.11604,-0.2808 0.15625,-0.4688 0.0402,-0.1878 0.0775,-0.4115 0.0937,-0.6561 0.0973,-1.4678 -0.25311,-3.9533 -1.03124,-7.4688 -0.52501,-4.7001 -1.56252,-8.5938 -3.12499,-11.7188 l 0.78124,0 0,-0.7812 c 0,-1.575 3.38122,-4.4314 10.15626,-8.5938 3.63748,-2.6125 8.59371,-6.025 14.84374,-10.1876 4.675,-2.6124 7.03125,-4.1749 7.03125,-4.6874 0.12505,0 0.24767,0.016 0.34376,0 0.0961,-0.016 0.15312,-0.061 0.21875,-0.094 0.13118,-0.064 0.21875,-0.15 0.21875,-0.2813 0,-0.2625 0.22492,-0.375 0.75,-0.375 0.3906,-0.3281 0.77499,-0.6944 1.12499,-1.0625 2.45,-2.5762 3.91564,-6.1265 4.375,-10.6875 l 0,-0.7812 0,-0.7812 c 0.49998,-1.05 0.49998,-1.8313 0,-2.3438 l 0,-0.7813 0,-0.7499 c -0.52499,-1.575 -5.21248,-2.375 -14.0625,-2.375 l -17.1875,0 c -9.37501,0 -16.9312,-5.9814 -22.65626,-17.9688 3.12497,-16.6875 12.21875,-29.4501 27.34376,-38.3125 l -14.84375,0.7812 c -17.17498,3.6375 -29.96878,10.6562 -38.28127,21.0937 -12.30466,-2.7343 -24.22153,-3.2821 -35.71874,-1.6249 -0.82124,0.1187 -1.65188,0.2655 -2.46876,0.4062 -0.81689,0.1408 -1.625,0.2742 -2.4375,0.4375 -2.62503,0 -5.46878,-0.2688 -8.59375,-0.7812 -12.50007,-11.4751 -19.01873,-23.4688 -19.53126,-35.968802 -1.56248,1.5625 -3.649991,3.793802 -6.249991,6.656202 -2.62501,2.8626 -5.881211,10.1813 -9.78125,21.9063 -3.90002,11.725 -5.33122,24.8876 -4.281241,39.5001 l 0,2.3436 c -5.74999,8.325 -8.875029,14.0626 -9.375,17.1876 -6.762479,13.55 -12.24378,32.0687 -16.406259,55.5312 0.25781,-0.8484 0.54386,-1.6983 0.84374,-2.5624 2.09916,-6.0491 5.2,-12.497 9.31251,-19.3438 -6.25003,18.775 -8.562491,43.0063 -7,72.7187 0.49997,-5.1999 1.56252,-11.4499 3.12499,-18.75 2.06254,25.0251 10.93748,51.3501 26.56251,79 33.849991,58.4001 83.037531,90.2064 147.625021,95.4064 7.80938,0.3843 15.6211,0.4734 23.4375,0.2812 2.60547,-0.064 5.20312,-0.1532 7.8125,-0.2812 0.78125,-0.2564 1.45001,-0.4642 1.96876,-0.5938 0.51875,-0.1292 0.89998,-0.1876 1.15625,-0.1876 12.49999,-0.5249 24.7312,-2.3312 36.71876,-5.4686 22.38751,-5.2002 42.44373,-13.9813 60.15626,-26.2188 17.69995,-12.25 31.63119,-25.2938 41.78129,-39.0938 10.1624,-13.8126 18.7437,-29.3313 25.7813,-46.5312 7.0249,-17.2125 11.8562,-32.7188 14.4686,-46.5313 2.6002,-13.825 4.275,-27.925 5.0626,-42.25 0.7875,-14.3375 1.1874,-23.9875 1.1874,-28.9376 0,-4.9624 -0.2562,-8.7187 -0.7812,-11.3437 l -4.6874,29.7188 c -4.1751,-36.5001 -9.1376,-61.7564 -14.8751,-75.8437 -3.6375,-9.375 -6.8874,-16.5501 -9.75,-21.5 -2.875,-4.9625 -4.8062,-7.8501 -5.8437,-8.625 -1.05,-0.7875 -1.8313,-1.1564 -2.3438,-1.1564 2.6001,6.2501 4.5437,12.1187 5.8438,17.5938 1.2999,5.4875 1.7,9.5126 1.1875,12.125 l 0,3.125 c -1.05,-3.125 -2.7562,-7.0312 -5.0938,-11.7188 -2.3374,-4.7 -8.175,-11.8625 -17.5625,-21.4999 -9.3625,-9.6627 -19.78752,-16.3313 -31.25,-19.9687 -21.48438,-7.175902 -39.04934,-10.889102 -52.65625,-11.156402 z" id="path4260" style="fill:#ffffff;fill-opacity:1"/></g></svg>