<?xml version="1.0" ?><svg enable-background="new 0 0 515.91 728.5" height="512" id="Layer_1" version="1.1" viewBox="0 0 512.00003 512" width="512" xml:space="preserve" xmlns="http://www.w3.org/2000/svg" xmlns:cc="http://creativecommons.org/ns#" xmlns:dc="http://purl.org/dc/elements/1.1/" xmlns:inkscape="http://www.inkscape.org/namespaces/inkscape" xmlns:rdf="http://www.w3.org/1999/02/22-rdf-syntax-ns#" xmlns:sodipodi="http://sodipodi.sourceforge.net/DTD/sodipodi-0.dtd" xmlns:svg="http://www.w3.org/2000/svg"><defs id="defs7"/><rect height="512" id="rect2984" rx="64" ry="64" style="fill:#282828;fill-opacity:1;fill-rule:nonzero;stroke:none" width="512" x="1.5e-005" y="0"/><path d="m 426.06701,205.07102 c 0,20.36448 -16.56892,36.88006 -37.00896,36.88006 -20.46223,0 -37.02233,-16.51558 -37.02233,-36.88006 0,-20.36449 16.5645,-36.87563 37.02233,-36.87563 20.44004,0 37.00896,16.51114 37.00896,36.87563 z m -14.91114,62.30678 -44.82675,38.19563 c 0.4844,3.04889 0.8133,6.14668 0.8133,9.32446 0,32.51562 -26.4622,58.88011 -59.0934,58.88011 -28.1512,0 -51.6579,-19.61781 -57.6135,-45.86675 l -110.8046,-37.45341 c -8.7556,6.62224 -19.6401,10.60002 -31.4801,10.60002 -28.799995,0 -52.151195,-23.26671 -52.151195,-51.9601 0,-28.68894 23.3512,-51.94676 52.151195,-51.94676 24.7645,0 45.449,17.20003 50.78681,40.24452 l 107.03569,36.18229 c 10.4267,-10.52891 24.8045,-17.12892 40.73791,-17.48448 l 16.03109,-48.5512 c -0.044,-0.96445 -0.1422,-1.91556 -0.1422,-2.88889 0,-36.68896 29.8623,-66.43124 66.69793,-66.43124 36.83562,0 66.70235,29.74228 66.70235,66.43124 0,29.06672 -18.76004,53.70676 -44.84452,62.72456 z M 140.94202,231.31551 c -6.2311,-11.17336 -18.1911,-18.74226 -31.9289,-18.74226 -20.168995,0 -36.520095,16.28892 -36.520095,36.37785 0,20.08892 16.3511,36.3734 36.520095,36.3734 3.7288,0 7.32,-0.56 10.7066,-1.59556 l -17.3511,-5.86223 c -13.982195,-7.45779 -19.244495,-24.7956 -11.755595,-38.72452 7.4934,-13.92003 24.897795,-19.15559 38.866795,-11.6978 l 11.4622,3.87112 z m 196.3381,-26.50227 c 0,28.49783 23.1912,51.60009 51.80015,51.60009 28.60894,0 51.81788,-23.10226 51.81788,-51.60009 0,-28.51117 -23.20894,-51.61343 -51.81788,-51.61343 -28.60895,0 -51.80015,23.10226 -51.80015,51.61343 z m 1.0223,115.13799 c 0,-21.69782 -17.6578,-39.28896 -39.4401,-39.28896 -3.0533,0 -6.0045,0.38222 -8.8578,1.03111 l 22.04,7.4489 c 13.9734,7.46669 19.2267,24.80005 11.7378,38.71563 -7.4889,13.93781 -24.8933,19.16893 -38.8623,11.71114 l -23.7511,-8.03113 c 4.96441,16.04003 19.9645,27.69783 37.6934,27.69783 21.7823,0 39.4401,-17.59559 39.4401,-39.28452 z" id="Steam" style="fill:#ffffff;fill-opacity:1;fill-rule:evenodd"/></svg>